<mxfile host="app.diagrams.net" modified="2021-07-13T12:07:07.085Z" agent="5.0 (Macintosh; Intel Mac OS X 10_15_7) AppleWebKit/537.36 (KHTML, like Gecko) Chrome/91.0.4472.114 Safari/537.36" etag="Hz7fFdhT4IwroKg9lHK4" version="14.8.6" type="github">
  <diagram id="BEjR0HLtB97xV4Nr8yXr" name="第 1 页">
    <mxGraphModel dx="1426" dy="769" grid="1" gridSize="10" guides="1" tooltips="1" connect="1" arrows="1" fold="1" page="1" pageScale="1" pageWidth="827" pageHeight="1169" math="0" shadow="0">
      <root>
        <mxCell id="0" />
        <mxCell id="1" parent="0" />
        <mxCell id="SsOxdFmmoxUePtUiBU5X-3" value="" style="edgeStyle=orthogonalEdgeStyle;rounded=0;orthogonalLoop=1;jettySize=auto;html=1;" edge="1" parent="1" source="SsOxdFmmoxUePtUiBU5X-1" target="SsOxdFmmoxUePtUiBU5X-2">
          <mxGeometry relative="1" as="geometry" />
        </mxCell>
        <mxCell id="SsOxdFmmoxUePtUiBU5X-5" value="" style="edgeStyle=orthogonalEdgeStyle;rounded=0;orthogonalLoop=1;jettySize=auto;html=1;" edge="1" parent="1" source="SsOxdFmmoxUePtUiBU5X-1" target="SsOxdFmmoxUePtUiBU5X-4">
          <mxGeometry relative="1" as="geometry" />
        </mxCell>
        <mxCell id="SsOxdFmmoxUePtUiBU5X-7" value="" style="edgeStyle=orthogonalEdgeStyle;rounded=0;orthogonalLoop=1;jettySize=auto;html=1;" edge="1" parent="1" source="SsOxdFmmoxUePtUiBU5X-1" target="SsOxdFmmoxUePtUiBU5X-6">
          <mxGeometry relative="1" as="geometry" />
        </mxCell>
        <mxCell id="SsOxdFmmoxUePtUiBU5X-9" value="" style="edgeStyle=orthogonalEdgeStyle;rounded=0;orthogonalLoop=1;jettySize=auto;html=1;" edge="1" parent="1" source="SsOxdFmmoxUePtUiBU5X-1" target="SsOxdFmmoxUePtUiBU5X-8">
          <mxGeometry relative="1" as="geometry" />
        </mxCell>
        <mxCell id="SsOxdFmmoxUePtUiBU5X-1" value="&amp;nbsp;资源同步" style="html=1;" vertex="1" parent="1">
          <mxGeometry x="359" y="110" width="110" height="50" as="geometry" />
        </mxCell>
        <mxCell id="SsOxdFmmoxUePtUiBU5X-2" value="阿里云" style="ellipse;whiteSpace=wrap;html=1;" vertex="1" parent="1">
          <mxGeometry x="80" y="200" width="120" height="60" as="geometry" />
        </mxCell>
        <mxCell id="SsOxdFmmoxUePtUiBU5X-4" value="腾讯云" style="ellipse;whiteSpace=wrap;html=1;" vertex="1" parent="1">
          <mxGeometry x="240" y="200" width="120" height="60" as="geometry" />
        </mxCell>
        <mxCell id="SsOxdFmmoxUePtUiBU5X-6" value="aws" style="ellipse;whiteSpace=wrap;html=1;" vertex="1" parent="1">
          <mxGeometry x="460" y="200" width="120" height="60" as="geometry" />
        </mxCell>
        <mxCell id="SsOxdFmmoxUePtUiBU5X-8" value="华为云" style="ellipse;whiteSpace=wrap;html=1;" vertex="1" parent="1">
          <mxGeometry x="650" y="200" width="120" height="60" as="geometry" />
        </mxCell>
        <mxCell id="SsOxdFmmoxUePtUiBU5X-23" value="" style="edgeStyle=orthogonalEdgeStyle;rounded=0;orthogonalLoop=1;jettySize=auto;html=1;" edge="1" parent="1" source="SsOxdFmmoxUePtUiBU5X-10" target="SsOxdFmmoxUePtUiBU5X-22">
          <mxGeometry relative="1" as="geometry" />
        </mxCell>
        <mxCell id="SsOxdFmmoxUePtUiBU5X-10" value="同步任务管理&lt;br&gt;sync_manager" style="html=1;" vertex="1" parent="1">
          <mxGeometry x="359" y="320" width="110" height="50" as="geometry" />
        </mxCell>
        <mxCell id="SsOxdFmmoxUePtUiBU5X-15" value="" style="edgeStyle=orthogonalEdgeStyle;html=1;verticalAlign=bottom;endArrow=open;endSize=8;strokeColor=#ff0000;exitX=0.5;exitY=1;exitDx=0;exitDy=0;entryX=0;entryY=0.75;entryDx=0;entryDy=0;" edge="1" source="SsOxdFmmoxUePtUiBU5X-2" parent="1" target="SsOxdFmmoxUePtUiBU5X-10">
          <mxGeometry relative="1" as="geometry">
            <mxPoint x="220" y="400" as="targetPoint" />
          </mxGeometry>
        </mxCell>
        <mxCell id="SsOxdFmmoxUePtUiBU5X-17" value="" style="edgeStyle=orthogonalEdgeStyle;html=1;verticalAlign=bottom;endArrow=open;endSize=8;strokeColor=#ff0000;exitX=0.5;exitY=1;exitDx=0;exitDy=0;entryX=0;entryY=0.5;entryDx=0;entryDy=0;" edge="1" source="SsOxdFmmoxUePtUiBU5X-4" parent="1" target="SsOxdFmmoxUePtUiBU5X-10">
          <mxGeometry relative="1" as="geometry">
            <mxPoint x="415" y="460" as="targetPoint" />
            <mxPoint x="415" y="400" as="sourcePoint" />
          </mxGeometry>
        </mxCell>
        <mxCell id="SsOxdFmmoxUePtUiBU5X-19" value="" style="edgeStyle=orthogonalEdgeStyle;html=1;verticalAlign=bottom;endArrow=open;endSize=8;strokeColor=#ff0000;exitX=0.5;exitY=1;exitDx=0;exitDy=0;entryX=1;entryY=0.5;entryDx=0;entryDy=0;" edge="1" source="SsOxdFmmoxUePtUiBU5X-6" parent="1" target="SsOxdFmmoxUePtUiBU5X-10">
          <mxGeometry relative="1" as="geometry">
            <mxPoint x="415" y="460" as="targetPoint" />
            <mxPoint x="415" y="400" as="sourcePoint" />
          </mxGeometry>
        </mxCell>
        <mxCell id="SsOxdFmmoxUePtUiBU5X-21" value="" style="edgeStyle=orthogonalEdgeStyle;html=1;verticalAlign=bottom;endArrow=open;endSize=8;strokeColor=#ff0000;exitX=0.5;exitY=1;exitDx=0;exitDy=0;" edge="1" source="SsOxdFmmoxUePtUiBU5X-8" parent="1">
          <mxGeometry relative="1" as="geometry">
            <mxPoint x="470" y="360" as="targetPoint" />
            <mxPoint x="415" y="400" as="sourcePoint" />
            <Array as="points">
              <mxPoint x="710" y="360" />
            </Array>
          </mxGeometry>
        </mxCell>
        <mxCell id="SsOxdFmmoxUePtUiBU5X-22" value="sync_task" style="shape=parallelogram;perimeter=parallelogramPerimeter;whiteSpace=wrap;html=1;fixedSize=1;" vertex="1" parent="1">
          <mxGeometry x="354" y="430" width="120" height="60" as="geometry" />
        </mxCell>
      </root>
    </mxGraphModel>
  </diagram>
</mxfile>
